<mxfile host="app.diagrams.net" modified="2021-01-12T03:29:38.336Z" agent="5.0 (Windows NT 10.0; WOW64) AppleWebKit/537.36 (KHTML, like Gecko) Chrome/63.0.3239.26 Safari/537.36 Core/1.63.5977.400 LBBROWSER/10.1.3752.400" etag="t2AJNUhbCfSnur8M12H1" version="14.1.8" type="github">
  <diagram id="oGqXw25pgGG-AfnonYzG" name="Page-1">
    <mxGraphModel dx="869" dy="576" grid="1" gridSize="10" guides="1" tooltips="1" connect="1" arrows="1" fold="1" page="1" pageScale="1" pageWidth="827" pageHeight="1169" math="0" shadow="0">
      <root>
        <mxCell id="0" />
        <mxCell id="1" parent="0" />
        <mxCell id="h6gdBTAZm9jFK5pSOTlI-6" style="edgeStyle=orthogonalEdgeStyle;rounded=0;orthogonalLoop=1;jettySize=auto;html=1;entryX=0.5;entryY=0;entryDx=0;entryDy=0;exitX=0.5;exitY=1;exitDx=0;exitDy=0;" edge="1" parent="1" source="h6gdBTAZm9jFK5pSOTlI-1" target="h6gdBTAZm9jFK5pSOTlI-3">
          <mxGeometry relative="1" as="geometry" />
        </mxCell>
        <mxCell id="h6gdBTAZm9jFK5pSOTlI-7" style="edgeStyle=orthogonalEdgeStyle;rounded=0;orthogonalLoop=1;jettySize=auto;html=1;entryX=0.5;entryY=0;entryDx=0;entryDy=0;" edge="1" parent="1" source="h6gdBTAZm9jFK5pSOTlI-1" target="h6gdBTAZm9jFK5pSOTlI-4">
          <mxGeometry relative="1" as="geometry" />
        </mxCell>
        <mxCell id="h6gdBTAZm9jFK5pSOTlI-8" style="edgeStyle=orthogonalEdgeStyle;rounded=0;orthogonalLoop=1;jettySize=auto;html=1;entryX=0.5;entryY=0;entryDx=0;entryDy=0;" edge="1" parent="1" target="h6gdBTAZm9jFK5pSOTlI-5">
          <mxGeometry relative="1" as="geometry">
            <mxPoint x="431" y="100" as="sourcePoint" />
          </mxGeometry>
        </mxCell>
        <mxCell id="h6gdBTAZm9jFK5pSOTlI-1" value="绘图语言解释器" style="rounded=0;whiteSpace=wrap;html=1;" vertex="1" parent="1">
          <mxGeometry x="373" y="30" width="116" height="50" as="geometry" />
        </mxCell>
        <mxCell id="h6gdBTAZm9jFK5pSOTlI-13" style="edgeStyle=orthogonalEdgeStyle;rounded=0;orthogonalLoop=1;jettySize=auto;html=1;entryX=0.5;entryY=0;entryDx=0;entryDy=0;" edge="1" parent="1" source="h6gdBTAZm9jFK5pSOTlI-3" target="h6gdBTAZm9jFK5pSOTlI-9">
          <mxGeometry relative="1" as="geometry" />
        </mxCell>
        <mxCell id="h6gdBTAZm9jFK5pSOTlI-14" style="edgeStyle=orthogonalEdgeStyle;rounded=0;orthogonalLoop=1;jettySize=auto;html=1;" edge="1" parent="1" source="h6gdBTAZm9jFK5pSOTlI-3" target="h6gdBTAZm9jFK5pSOTlI-10">
          <mxGeometry relative="1" as="geometry" />
        </mxCell>
        <mxCell id="h6gdBTAZm9jFK5pSOTlI-15" style="edgeStyle=orthogonalEdgeStyle;rounded=0;orthogonalLoop=1;jettySize=auto;html=1;entryX=0.5;entryY=0;entryDx=0;entryDy=0;" edge="1" parent="1" source="h6gdBTAZm9jFK5pSOTlI-3" target="h6gdBTAZm9jFK5pSOTlI-12">
          <mxGeometry relative="1" as="geometry">
            <Array as="points">
              <mxPoint x="255" y="340" />
              <mxPoint x="200" y="340" />
            </Array>
          </mxGeometry>
        </mxCell>
        <mxCell id="h6gdBTAZm9jFK5pSOTlI-16" style="edgeStyle=orthogonalEdgeStyle;rounded=0;orthogonalLoop=1;jettySize=auto;html=1;" edge="1" parent="1" source="h6gdBTAZm9jFK5pSOTlI-3" target="h6gdBTAZm9jFK5pSOTlI-11">
          <mxGeometry relative="1" as="geometry">
            <Array as="points">
              <mxPoint x="255" y="340" />
              <mxPoint x="310" y="340" />
            </Array>
          </mxGeometry>
        </mxCell>
        <mxCell id="h6gdBTAZm9jFK5pSOTlI-3" value="绘图方法函数" style="rounded=0;whiteSpace=wrap;html=1;" vertex="1" parent="1">
          <mxGeometry x="220" y="120" width="70" height="110" as="geometry" />
        </mxCell>
        <mxCell id="h6gdBTAZm9jFK5pSOTlI-23" style="edgeStyle=orthogonalEdgeStyle;rounded=0;orthogonalLoop=1;jettySize=auto;html=1;entryX=0.5;entryY=0;entryDx=0;entryDy=0;" edge="1" parent="1" source="h6gdBTAZm9jFK5pSOTlI-4" target="h6gdBTAZm9jFK5pSOTlI-17">
          <mxGeometry relative="1" as="geometry" />
        </mxCell>
        <mxCell id="h6gdBTAZm9jFK5pSOTlI-24" style="edgeStyle=orthogonalEdgeStyle;rounded=0;orthogonalLoop=1;jettySize=auto;html=1;" edge="1" parent="1" source="h6gdBTAZm9jFK5pSOTlI-4" target="h6gdBTAZm9jFK5pSOTlI-18">
          <mxGeometry relative="1" as="geometry" />
        </mxCell>
        <mxCell id="h6gdBTAZm9jFK5pSOTlI-4" value="Scanner扫描类" style="rounded=0;whiteSpace=wrap;html=1;" vertex="1" parent="1">
          <mxGeometry x="396" y="120" width="70" height="110" as="geometry" />
        </mxCell>
        <mxCell id="h6gdBTAZm9jFK5pSOTlI-25" style="edgeStyle=orthogonalEdgeStyle;rounded=0;orthogonalLoop=1;jettySize=auto;html=1;" edge="1" parent="1" source="h6gdBTAZm9jFK5pSOTlI-5" target="h6gdBTAZm9jFK5pSOTlI-19">
          <mxGeometry relative="1" as="geometry" />
        </mxCell>
        <mxCell id="h6gdBTAZm9jFK5pSOTlI-26" style="edgeStyle=orthogonalEdgeStyle;rounded=0;orthogonalLoop=1;jettySize=auto;html=1;entryX=0.5;entryY=0;entryDx=0;entryDy=0;" edge="1" parent="1" source="h6gdBTAZm9jFK5pSOTlI-5" target="h6gdBTAZm9jFK5pSOTlI-20">
          <mxGeometry relative="1" as="geometry" />
        </mxCell>
        <mxCell id="h6gdBTAZm9jFK5pSOTlI-27" style="edgeStyle=orthogonalEdgeStyle;rounded=0;orthogonalLoop=1;jettySize=auto;html=1;" edge="1" parent="1" source="h6gdBTAZm9jFK5pSOTlI-5" target="h6gdBTAZm9jFK5pSOTlI-21">
          <mxGeometry relative="1" as="geometry">
            <Array as="points">
              <mxPoint x="605" y="340" />
              <mxPoint x="560" y="340" />
            </Array>
          </mxGeometry>
        </mxCell>
        <mxCell id="h6gdBTAZm9jFK5pSOTlI-28" style="edgeStyle=orthogonalEdgeStyle;rounded=0;orthogonalLoop=1;jettySize=auto;html=1;entryX=0.5;entryY=0;entryDx=0;entryDy=0;" edge="1" parent="1" source="h6gdBTAZm9jFK5pSOTlI-5" target="h6gdBTAZm9jFK5pSOTlI-22">
          <mxGeometry relative="1" as="geometry">
            <Array as="points">
              <mxPoint x="605" y="340" />
              <mxPoint x="650" y="340" />
            </Array>
          </mxGeometry>
        </mxCell>
        <mxCell id="h6gdBTAZm9jFK5pSOTlI-5" value="语法分析" style="rounded=0;whiteSpace=wrap;html=1;" vertex="1" parent="1">
          <mxGeometry x="570" y="120" width="70" height="110" as="geometry" />
        </mxCell>
        <mxCell id="h6gdBTAZm9jFK5pSOTlI-9" value="创造结点" style="whiteSpace=wrap;html=1;aspect=fixed;" vertex="1" parent="1">
          <mxGeometry x="170" y="270" width="60" height="60" as="geometry" />
        </mxCell>
        <mxCell id="h6gdBTAZm9jFK5pSOTlI-10" value="删除结点" style="whiteSpace=wrap;html=1;aspect=fixed;" vertex="1" parent="1">
          <mxGeometry x="280" y="270" width="60" height="60" as="geometry" />
        </mxCell>
        <mxCell id="h6gdBTAZm9jFK5pSOTlI-11" value="绘图实现" style="whiteSpace=wrap;html=1;aspect=fixed;" vertex="1" parent="1">
          <mxGeometry x="280" y="360" width="60" height="60" as="geometry" />
        </mxCell>
        <mxCell id="h6gdBTAZm9jFK5pSOTlI-12" value="获取结点值" style="whiteSpace=wrap;html=1;aspect=fixed;" vertex="1" parent="1">
          <mxGeometry x="170" y="360" width="60" height="60" as="geometry" />
        </mxCell>
        <mxCell id="h6gdBTAZm9jFK5pSOTlI-17" value="定义token类型" style="whiteSpace=wrap;html=1;aspect=fixed;" vertex="1" parent="1">
          <mxGeometry x="354" y="270" width="60" height="60" as="geometry" />
        </mxCell>
        <mxCell id="h6gdBTAZm9jFK5pSOTlI-18" value="获取token" style="whiteSpace=wrap;html=1;aspect=fixed;" vertex="1" parent="1">
          <mxGeometry x="450" y="270" width="60" height="60" as="geometry" />
        </mxCell>
        <mxCell id="h6gdBTAZm9jFK5pSOTlI-19" value="非终结符判断" style="whiteSpace=wrap;html=1;aspect=fixed;" vertex="1" parent="1">
          <mxGeometry x="530" y="270" width="60" height="60" as="geometry" />
        </mxCell>
        <mxCell id="h6gdBTAZm9jFK5pSOTlI-20" value="表达式文法" style="whiteSpace=wrap;html=1;aspect=fixed;" vertex="1" parent="1">
          <mxGeometry x="620" y="270" width="60" height="60" as="geometry" />
        </mxCell>
        <mxCell id="h6gdBTAZm9jFK5pSOTlI-21" value="输出记号" style="whiteSpace=wrap;html=1;aspect=fixed;" vertex="1" parent="1">
          <mxGeometry x="530" y="360" width="60" height="60" as="geometry" />
        </mxCell>
        <mxCell id="h6gdBTAZm9jFK5pSOTlI-22" value="语法错误处理" style="whiteSpace=wrap;html=1;aspect=fixed;" vertex="1" parent="1">
          <mxGeometry x="620" y="360" width="60" height="60" as="geometry" />
        </mxCell>
      </root>
    </mxGraphModel>
  </diagram>
</mxfile>
